<svg width="116" height="108" viewBox="0 0 116 108" fill="none" xmlns="http://www.w3.org/2000/svg">
<g filter="url(#filter0_d_413_1155)">
<path d="M44.9276 44.6613H71.0724L57.9999 27.8572L44.9278 44.6613H44.9276ZM36.3317 0H59.1158L112 68H89.2164L82.6875 59.5974H33.313L26.7841 68H4L46.6086 13.2129L36.332 0L36.3317 0Z" fill="white"/>
<path d="M17.6782 99.7753L12.7712 88.2563H8.9143L4 99.7753H7.41101L8.22478 97.6746H13.2828L14.1258 99.7753H17.6782ZM12.2157 94.9495H9.29194L10.7246 91.2819H10.7806L12.2279 94.9495H12.2157ZM24.3759 99.7753L29.1514 88.2563H25.7403L22.6777 96.4258H22.6217L19.5591 88.2563H15.9921L20.7798 99.7753H24.3759ZM37.6594 99.7753V91.0806H41.3141V88.2563H30.8374V91.0806H34.492V99.7753H37.6594ZM55.4941 93.9896C55.4941 91.9734 55.058 90.2228 53.6814 89.1637C52.4851 88.2563 50.9575 88.02 48.962 88.02C46.9666 88.02 45.4365 88.2563 44.2451 89.1637C42.8685 90.2228 42.4324 91.988 42.4324 94.0071C42.4324 96.0261 42.8685 97.7738 44.2451 98.8329C45.4365 99.7753 46.969 100 48.962 100C50.955 100 52.4876 99.7462 53.6814 98.8329C55.058 97.7738 55.4941 96.0261 55.4941 93.9896ZM52.2634 94.0917C52.2634 96.4258 51.1548 97.1173 48.962 97.1173C46.7692 97.1173 45.6631 96.1895 45.6631 93.9049C45.6631 91.6204 46.7571 90.8968 48.962 90.8968C51.167 90.8968 52.2634 91.8217 52.2634 94.1063V94.0917ZM69.3526 99.7753L66.5726 95.6731C66.923 95.5702 67.2588 95.406 67.5691 95.1858C68.4121 94.5614 68.8093 93.6365 68.8093 92.1047C68.8093 90.7597 68.4584 89.8348 67.7421 89.2104C66.7968 88.373 65.3788 88.2563 63.4954 88.2563H58.2449V99.7753H61.4122V96.0932H63.1543L65.5274 99.7753H69.3526ZM65.6029 92.2068C65.6029 93.2339 65.1156 93.5023 63.4832 93.5023H61.4171V90.996H63.4491C64.8257 90.996 65.6127 91.0485 65.6127 92.2068H65.6029ZM75.4169 99.7753V88.2563H72.2495V99.7753H75.4169ZM84.7119 99.7753V91.0806H88.3665V88.2563H77.8899V91.0806H81.5445V99.7753H84.7119ZM99.7666 99.7753V96.9335H94.0069V95.285H99.1064V92.5278H94.0069V91.0689H99.5279V88.2563H90.8347V99.7753H99.7666ZM108.345 99.7753V91.0806H112V88.2563H101.523V91.0806H105.178V99.7753H108.345Z" fill="#E6E7E8"/>
<path d="M17.6782 99.7753L12.7712 88.2563H8.9143L4 99.7753H7.41101L8.22478 97.6746H13.2828L14.1258 99.7753H17.6782ZM12.2157 94.9495H9.29194L10.7246 91.2819H10.7806L12.2279 94.9495H12.2157ZM24.3759 99.7753L29.1514 88.2563H25.7403L22.6777 96.4258H22.6217L19.5591 88.2563H15.9921L20.7798 99.7753H24.3759ZM37.6594 99.7753V91.0806H41.3141V88.2563H30.8374V91.0806H34.492V99.7753H37.6594ZM55.4941 93.9896C55.4941 91.9734 55.058 90.2228 53.6814 89.1637C52.4851 88.2563 50.9575 88.02 48.962 88.02C46.9666 88.02 45.4365 88.2563 44.2451 89.1637C42.8685 90.2228 42.4324 91.988 42.4324 94.0071C42.4324 96.0261 42.8685 97.7738 44.2451 98.8329C45.4365 99.7753 46.969 100 48.962 100C50.955 100 52.4876 99.7462 53.6814 98.8329C55.058 97.7738 55.4941 96.0261 55.4941 93.9896ZM52.2634 94.0917C52.2634 96.4258 51.1548 97.1173 48.962 97.1173C46.7692 97.1173 45.6631 96.1895 45.6631 93.9049C45.6631 91.6204 46.7571 90.8968 48.962 90.8968C51.167 90.8968 52.2634 91.8217 52.2634 94.1063V94.0917ZM69.3526 99.7753L66.5726 95.6731C66.923 95.5702 67.2588 95.406 67.5691 95.1858C68.4121 94.5614 68.8093 93.6365 68.8093 92.1047C68.8093 90.7597 68.4584 89.8348 67.7421 89.2104C66.7968 88.373 65.3788 88.2563 63.4954 88.2563H58.2449V99.7753H61.4122V96.0932H63.1543L65.5274 99.7753H69.3526ZM65.6029 92.2068C65.6029 93.2339 65.1156 93.5023 63.4832 93.5023H61.4171V90.996H63.4491C64.8257 90.996 65.6127 91.0485 65.6127 92.2068H65.6029ZM75.4169 99.7753V88.2563H72.2495V99.7753H75.4169ZM84.7119 99.7753V91.0806H88.3665V88.2563H77.8899V91.0806H81.5445V99.7753H84.7119ZM99.7666 99.7753V96.9335H94.0069V95.285H99.1064V92.5278H94.0069V91.0689H99.5279V88.2563H90.8347V99.7753H99.7666ZM108.345 99.7753V91.0806H112V88.2563H101.523V91.0806H105.178V99.7753H108.345Z" fill="#E53133"/>
</g>
<defs>
<filter id="filter0_d_413_1155" x="0" y="0" width="116" height="108" filterUnits="userSpaceOnUse" color-interpolation-filters="sRGB">
<feFlood flood-opacity="0" result="BackgroundImageFix"/>
<feColorMatrix in="SourceAlpha" type="matrix" values="0 0 0 0 0 0 0 0 0 0 0 0 0 0 0 0 0 0 127 0" result="hardAlpha"/>
<feOffset dy="4"/>
<feGaussianBlur stdDeviation="2"/>
<feComposite in2="hardAlpha" operator="out"/>
<feColorMatrix type="matrix" values="0 0 0 0 0 0 0 0 0 0 0 0 0 0 0 0 0 0 0.25 0"/>
<feBlend mode="normal" in2="BackgroundImageFix" result="effect1_dropShadow_413_1155"/>
<feBlend mode="normal" in="SourceGraphic" in2="effect1_dropShadow_413_1155" result="shape"/>
</filter>
</defs>
</svg>
